<svg id="Layer_1" data-name="Layer 1" xmlns="http://www.w3.org/2000/svg" viewBox="0 0 100 100"><path d="M86.83,9.05h0a3.3,3.3,0,0,0-2.22.84l-39,35-5.13,4.28a9.56,9.56,0,0,1-6.12,2.21H26a1.37,1.37,0,0,0-1.37,1.37,1.34,1.34,0,0,0,.26.79l3.47,4.86a12.57,12.57,0,0,0,19.78.88L53,53.65l36.32-39a3.33,3.33,0,0,0-.17-4.7A3.28,3.28,0,0,0,86.83,9.05ZM52.18,42.63,56,46.41l-4,4.24-3.67-4.59ZM46.06,57.49a9.84,9.84,0,0,1-13.88,1.07,10.26,10.26,0,0,1-1.61-1.75L28.64,54.1h5.68a12.29,12.29,0,0,0,7.87-2.85l4.08-3.4,3.89,4.86ZM87.27,12.78,57.82,44.41,54.21,40.8,86.42,11.93a.58.58,0,0,1,.39-.15h0a.59.59,0,0,1,.6.59.62.62,0,0,1-.16.41Z"/><rect x="57.39" y="26.79" width="2.73" height="2.73"/><path d="M79.93,29.21l-1.38,2.36a15.19,15.19,0,0,1,7.51,13.07,13.72,13.72,0,0,1-6.12,11.45l-5.56,3.7a1.37,1.37,0,0,0-.6,1.14V71.85A16.4,16.4,0,0,1,57.39,88.23H40.33a29.35,29.35,0,1,1,0-58.7H54.66V26.79H40.33a32.09,32.09,0,0,0,0,64.18H57.39A19.16,19.16,0,0,0,76.51,71.85V61.66l4.94-3.3a16.44,16.44,0,0,0,7.34-13.72A17.91,17.91,0,0,0,79.93,29.21Z"/><path d="M20.53,63.66a4.1,4.1,0,1,1,0-8.19V52.74a6.83,6.83,0,1,0,6.82,6.82H24.62A4.1,4.1,0,0,1,20.53,63.66Z"/><path d="M33.27,49.32a6.83,6.83,0,1,0-11,1.11l2-1.81A4.1,4.1,0,1,1,30.9,48Z"/><path d="M42.37,36.35a4.1,4.1,0,0,1,4,3.07L49,38.74a6.83,6.83,0,1,0-10,7.62L40.33,44a4.1,4.1,0,0,1,2-7.65Z"/><path d="M20.53,73.22a6.83,6.83,0,1,0,6.82-6.83A6.82,6.82,0,0,0,20.53,73.22Zm6.82-4.1a4.1,4.1,0,1,1-4.09,4.1A4.09,4.09,0,0,1,27.35,69.12Z"/><path d="M35.55,78.68a6.83,6.83,0,1,0,6.82-6.83A6.82,6.82,0,0,0,35.55,78.68Zm10.92,0a4.1,4.1,0,1,1-4.1-4.1A4.09,4.09,0,0,1,46.47,78.68Z"/><path d="M60.12,66.39A9.56,9.56,0,1,0,69.68,76,9.55,9.55,0,0,0,60.12,66.39Zm0,16.38A6.83,6.83,0,1,1,67,76,6.82,6.82,0,0,1,60.12,82.77Z"/><path d="M75.14,44.54a4.09,4.09,0,0,1-4.09-4.09H68.31a6.83,6.83,0,1,0,6.83-6.83v2.73a4.1,4.1,0,1,1,0,8.19Z"/><path d="M62.85,60.93H57.67a10.42,10.42,0,0,0-8.17,3.92,7.67,7.67,0,0,1-6,2.9H41.69a7.4,7.4,0,0,1-5.42-2.31l-2,1.89a10.14,10.14,0,0,0,7.39,3.16h1.77a10.43,10.43,0,0,0,8.17-3.93,7.67,7.67,0,0,1,6-2.9h5.18a6.83,6.83,0,1,0,0-13.65H58.76v2.73h4.09a4.1,4.1,0,1,1,0,8.19Z"/></svg>