<svg id="Layer_1" data-name="Layer 1" xmlns="http://www.w3.org/2000/svg" viewBox="0 0 100 100"><title>athletics</title><path d="M84,71.28H80.69l-3.13-7.13h.78a1.42,1.42,0,1,0,0-2.84h-2l-1.25-2.85h.44a1.43,1.43,0,0,0,0-2.85H73.8l-1.26-2.85h.1a1.43,1.43,0,0,0,0-2.85H71.29L70,47a1.43,1.43,0,0,0-.24-2.83h-1l-3.26-7.42v-5.4a4.88,4.88,0,0,0-.07-.76L85,11A1.43,1.43,0,0,0,84,8.6H44.15a1.42,1.42,0,0,0-1,.42l-3.27,3.27a4.28,4.28,0,0,0-5.86.17L14.65,31.81l-1.87,1.87a12.83,12.83,0,0,0,0,18.14h0l13.9,13.89a4.25,4.25,0,0,0,3,1.26h4.48a1.41,1.41,0,0,1,1.42,1.42V73a4.25,4.25,0,0,0,1.26,3L48.7,87.81a21.26,21.26,0,0,0,15.11,6.26H86.88A7.14,7.14,0,0,0,94,87v-5.7A10,10,0,0,0,84,71.28Zm0,2.85a7.13,7.13,0,0,1,7.12,7.12v1.42H74a15.58,15.58,0,0,1-11.08-4.59L25.68,40.82a12.82,12.82,0,0,0,0-16l4.23-4.22v.87a18.39,18.39,0,0,0,5.42,13.1l7.08,7.08A18.43,18.43,0,0,0,55.5,47.06h4.3l1.26,2.85H57a1.43,1.43,0,0,0,0,2.85h5.34l1.25,2.85H59.82a1.43,1.43,0,0,0,0,2.85h5l1.25,2.85h-3.4a1.42,1.42,0,1,0,0,2.84h4.65l2.52,5.72a7.13,7.13,0,0,0,6.52,4.26Zm-6.46-2.85H76.36a4.26,4.26,0,0,1-3.91-2.56l-2-4.57h4Zm-4.39-10h-4l-1.25-2.85h4Zm-2.5-5.7h-4l-1.26-2.85h4Zm-6.52-5.7-1.26-2.85h4l1.26,2.85Zm-2.51-5.7-2.51-5.7h4l2.51,5.7Zm1-8.54H56l-.44,0V31.39A1.42,1.42,0,0,1,57,30h4.27a1.43,1.43,0,0,1,1.43,1.42ZM44.74,11.45H80.6L64,28.09a4.29,4.29,0,0,0-2.72-1H57a4.27,4.27,0,0,0-4.27,4.27v3.72a9.89,9.89,0,0,1-3.76-2.37L44.22,28a9.9,9.9,0,0,1-2.92-7V15.48a5.25,5.25,0,0,0,0-.56Zm-8.72,3a1.42,1.42,0,0,1,2,0,1.46,1.46,0,0,1,.41,1V21A12.75,12.75,0,0,0,42.21,30l4.72,4.72A12.73,12.73,0,0,0,56,38.51h0l2.51,5.7h-3a15.55,15.55,0,0,1-11.07-4.59l-7.09-7.08a15.55,15.55,0,0,1-4.58-11.08V17.74ZM23.65,26.84a10,10,0,0,1,0,12l-6-6ZM86.88,91.22H82.61V89.79a1.43,1.43,0,0,0-2.85,0v1.43H71.22V89.79a1.43,1.43,0,0,0-2.85,0v1.43H63.81a18.43,18.43,0,0,1-11.9-4.32l3.22-3.22a1.42,1.42,0,0,0,0-2,1.44,1.44,0,0,0-2,0l-3.26,3.27L43.32,78.4l3.26-3.27a1.42,1.42,0,1,0-2-2L41.3,76.38,38.87,74a1.4,1.4,0,0,1-.42-1V68.39a4.27,4.27,0,0,0-4.27-4.27H29.7a1.42,1.42,0,0,1-1-.42l-5.28-5.28,3.23-3.23a1.42,1.42,0,0,0-2-2L21.4,56.4l-6.53-6.53,3.22-3.23a1.42,1.42,0,0,0-2-2h0l-3,3A10,10,0,0,1,14.79,35.7l.87-.87L60.93,80.1A18.41,18.41,0,0,0,74,85.52H91.16V87A4.28,4.28,0,0,1,86.88,91.22Z" fill="#010101"/><path d="M10,68.43H22.78a1.43,1.43,0,1,0,0-2.85H10a1.43,1.43,0,0,0,0,2.85Z" fill="#010101"/><path d="M39.88,82.67H10a1.43,1.43,0,0,0,0,2.85H39.88a1.43,1.43,0,0,0,0-2.85Z" fill="#010101"/><path d="M10,77H31.33a1.42,1.42,0,1,0,0-2.84H10A1.42,1.42,0,1,0,10,77Z" fill="#010101"/></svg>