<svg id="Layer_1" data-name="Layer 1" xmlns="http://www.w3.org/2000/svg" viewBox="0 0 100 100"><title>badminton-01</title><path d="M91.12,36.62H79.54V24.86A2.52,2.52,0,0,0,77,22.34H65.26V10.59a2.51,2.51,0,0,0-2.51-2.52H48.43A2.5,2.5,0,0,0,46.2,9.43l-23,44.1L12.84,63.94A17.63,17.63,0,0,0,37.77,88.87L48.13,78.46,92.28,55.57a2.53,2.53,0,0,0,1.36-2.24V39.13a2.51,2.51,0,0,0-2.52-2.51ZM74.5,27.38V37.81L39.73,65.9,35.82,62l28-34.6Zm-35,52.56L36,76.4l3.57-3.56,3.53,3.54ZM21.75,62.16l3.56-3.57,3.56,3.57-3.56,3.56Zm10.68,3.56L36,69.28l-3.56,3.56-3.56-3.56ZM50,13.11H60.23V23.86l-28,34.54-3.85-3.84ZM34.21,85.31A12.59,12.59,0,0,1,16.4,67.5l1.78-1.78,5.35,5.34h0L36,83.53ZM88.6,51.8,47.14,73.3l-3.82-3.82L77.76,41.65H88.6Z" fill="#010101"/></svg>