<svg id="Layer_1" data-name="Layer 1" xmlns="http://www.w3.org/2000/svg" viewBox="0 0 100 100"><title>communication</title><path d="M50.49,43.09a12,12,0,0,0-12,12v.3a12,12,0,0,0,12,12h.3a12,12,0,0,0,12-12v-.3a12,12,0,0,0-12-12Zm8.3,12v.3a8,8,0,0,1-8,8h-.3a8,8,0,0,1-8-8v-.3a8,8,0,0,1,8-8h.3A8,8,0,0,1,58.79,55.09Z" fill="#010101"/><path d="M63.59,60.29a9.5,9.5,0,1,0,9.5-9.5A9.56,9.56,0,0,0,63.59,60.29Zm9.5-5.5a5.5,5.5,0,1,1-5.5,5.5A5.48,5.48,0,0,1,73.09,54.79Z" fill="#010101"/><path d="M82.19,72.59h-1a2,2,0,0,0-1.5.6c-1.2,1.3-5.8,2.4-8.6,2.4a.9.9,0,0,0-.5.1,14.15,14.15,0,0,0-9.9-5.1,2,2,0,0,0-1.5.6,12.3,12.3,0,0,1-8.5,3.5,11.87,11.87,0,0,1-8.5-3.5,2.2,2.2,0,0,0-1.5-.6,14.15,14.15,0,0,0-9.9,5.1,4.33,4.33,0,0,0-.5-.1c-2.9,0-7.4-1.1-8.7-2.4a2,2,0,0,0-1.5-.6h-1A10.07,10.07,0,0,0,9,82.69v6.1a2,2,0,0,0,2,2h16.3v2.1a2,2,0,0,0,2,2h42.6a2,2,0,0,0,2-2v-2.1h16.3a2,2,0,0,0,2-2v-6.1A9.93,9.93,0,0,0,82.19,72.59Zm-69.1,14.2v-4.1a6.06,6.06,0,0,1,6.1-6.1h.3c2.3,1.8,6.3,2.6,9,2.9a14.08,14.08,0,0,0-1.1,5.4v1.9Zm56.9,4H31.39v-6a10.41,10.41,0,0,1,8.7-10.2,16.3,16.3,0,0,0,10.6,3.9,16.5,16.5,0,0,0,10.6-3.9A10.32,10.32,0,0,1,70,84.79Zm18.3-4H74v-1.9a14.08,14.08,0,0,0-1.1-5.4c2.7-.3,6.7-1.1,9-2.9h.3a6.06,6.06,0,0,1,6.1,6.1Z" fill="#010101"/><path d="M28.29,50.79a9.5,9.5,0,1,0,9.5,9.5A9.56,9.56,0,0,0,28.29,50.79Zm0,15a5.5,5.5,0,1,1,5.5-5.5A5.48,5.48,0,0,1,28.29,65.79Z" fill="#010101"/><path d="M23.49,36.89h2.2l6.5,8.3a2.09,2.09,0,0,0,1.6.8h.1a2.2,2.2,0,0,0,1.6-.9l5.5-8.2h18.2a8,8,0,0,0,8-8V14.59a8,8,0,0,0-8-8H23.49a8,8,0,0,0-8,8V29A7.94,7.94,0,0,0,23.49,36.89Zm-4-22.3a4,4,0,0,1,4-4h35.6a4,4,0,0,1,4,4V29a4,4,0,0,1-4,4H39.79a2,2,0,0,0-1.7.9l-4.5,6.8-5.3-7a2.09,2.09,0,0,0-1.6-.8h-3.2a4,4,0,0,1-4-4Z" fill="#010101"/><path d="M26.69,19.69H53a2,2,0,0,0,0-4H26.69a2,2,0,0,0,0,4Z" fill="#010101"/><path d="M26.69,27.79h17.2a2,2,0,0,0,0-4H26.69a2,2,0,0,0,0,4Z" fill="#010101"/></svg>