<svg id="Layer_1" data-name="Layer 1" xmlns="http://www.w3.org/2000/svg" viewBox="0 0 100 100"><title>coping</title><path d="M74.78,40.38a1.46,1.46,0,0,0,.55-1.14V32a1.47,1.47,0,0,0-1.46-1.47,1.59,1.59,0,0,0-.61.13L57.45,37.82H53.83a8.78,8.78,0,1,0-12.17-2.48,8.87,8.87,0,0,0,2.48,2.48H40.53L24.72,30.63a1.48,1.48,0,0,0-1.94.72,1.5,1.5,0,0,0-.13.62v7.27a1.48,1.48,0,0,0,.54,1.14L37.28,51.69v8L32.93,78.46A1.47,1.47,0,0,0,34,80.22a1.24,1.24,0,0,0,.33,0h8.78a1.46,1.46,0,0,0,1.39-1L49,66l4.46,13.31a1.47,1.47,0,0,0,1.39,1h8.78a1.47,1.47,0,0,0,1.47-1.47,1.86,1.86,0,0,0,0-.33L60.7,59.72v-8ZM49,24.65a5.86,5.86,0,1,1-5.86,5.85A5.85,5.85,0,0,1,49,24.65Zm8.82,35.57,4,17.11H55.89L50.38,60.88A1.46,1.46,0,0,0,48.53,60a1.48,1.48,0,0,0-.94.93L42.08,77.33H36.2l4-17.11a1.86,1.86,0,0,0,0-.33V51a1.46,1.46,0,0,0-.55-1.14L25.57,38.54v-4.3l14,6.38a1.59,1.59,0,0,0,.61.13H57.77a1.54,1.54,0,0,0,.6-.13l14-6.38v4.3L58.32,49.85A1.46,1.46,0,0,0,57.77,51v8.9A1.24,1.24,0,0,0,57.81,60.22Z" fill="#010101"/><rect x="47.52" y="8.55" width="2.93" height="5.85" fill="#010101"/><rect x="47.52" y="87.58" width="2.93" height="5.85" fill="#010101"/><rect x="85.57" y="49.53" width="5.85" height="2.93" fill="#010101"/><rect x="6.55" y="49.53" width="5.85" height="2.93" fill="#010101"/><rect x="74" y="21.59" width="5.85" height="2.93" transform="translate(6.23 61.15) rotate(-45)" fill="#010101"/><rect x="18.12" y="77.47" width="5.85" height="2.93" transform="translate(-49.65 38) rotate(-45)" fill="#010101"/><rect x="75.46" y="76" width="2.93" height="5.85" transform="translate(-33.28 77.51) rotate(-45)" fill="#010101"/><rect x="19.59" y="20.12" width="2.93" height="5.85" transform="translate(-10.14 21.64) rotate(-45)" fill="#010101"/></svg>