<svg id="Layer_1" data-name="Layer 1" xmlns="http://www.w3.org/2000/svg" viewBox="0 0 100 100"><title>critical-thinking</title><ellipse cx="43.82" cy="40.98" rx="1.34" ry="2.01" fill="#010101"/><ellipse cx="57.23" cy="40.98" rx="1.34" ry="2.01" fill="#010101"/><path d="M55.18,49c-.67.66-2.81,2.39-4.66,2.39s-4-1.73-4.65-2.39a1,1,0,0,0-1.42,0,1,1,0,0,0,0,1.42c.12.12,3,3,6.07,3s6-2.86,6.08-3A1,1,0,0,0,55.18,49Z" fill="#010101"/><path d="M27.83,23.54,25.43,26a1.34,1.34,0,0,0,0,1.89,1.33,1.33,0,0,0,1.9,0l2.35-2.35a15.26,15.26,0,0,0,6.19,3.78l-.64,10.19a23.89,23.89,0,0,0,7,18.38,16.93,16.93,0,0,0,1.64,1.38V65.8H31.94a10.69,10.69,0,0,0-10.26,7.58L17,90.94a1.34,1.34,0,0,0,.24,1.16,1.32,1.32,0,0,0,1.06.52H88.08a1.36,1.36,0,0,0,1.07-.52,1.34,1.34,0,0,0,.23-1.16L84.72,73.33A10.69,10.69,0,0,0,74.47,65.8H62.6V60.9l5.07-6.34s0,0,0,0l0-.06C68.65,53.09,76.68,41,77.57,39c.25-.56.51-1.13.79-1.71,1.75-3.77,3.75-8,2.76-12.37-1.17-5.11-4.77-5.71-8.15-6-1.12-1.88-4.42-6.82-8.45-7.07-2.36-.14-4.73-.09-7,0h-.38c-6.93.15-14,.52-20,.86q-6.64.38-13.29.82a1.36,1.36,0,0,0-1.06.65,1.39,1.39,0,0,0-.08,1.24A38.44,38.44,0,0,0,27.83,23.54ZM82.14,74.07l4.2,15.87H74.67v-8a1.34,1.34,0,0,0-2.68,0v8H34.43v-8a1.35,1.35,0,0,0-2.69,0v8H20.07l4.19-15.81a8,8,0,0,1,7.68-5.65H44a5.31,5.31,0,0,0,2.83,3.65,14.42,14.42,0,0,0,12.85,0,5.31,5.31,0,0,0,2.83-3.65h12A8,8,0,0,1,82.14,74.07ZM60.21,59.59a1.37,1.37,0,0,0-.3.84v6.9a2.64,2.64,0,0,1-1.48,2.4,11.71,11.71,0,0,1-10.45,0,2.66,2.66,0,0,1-1.48-2.4V61a14.23,14.23,0,0,0,6.71,2.11,1.34,1.34,0,0,0,0-2.68c-3.55,0-7.94-3.29-9.13-4.48a21.23,21.23,0,0,1-6.17-16.32l.61-9.88c7.63.74,23.11-.79,28.18-1.35-.09,1.53-.23,4-.39,6.88a1.37,1.37,0,0,0,.4,1,1.39,1.39,0,0,0,1,.38,1.49,1.49,0,0,1,1.11.4,1.38,1.38,0,0,1,.44,1,1.45,1.45,0,0,1-.24.81l-3,4.53a1.33,1.33,0,0,0-.22.67l-.51,9.09Zm-23-44.25c6-.34,13.06-.71,19.95-.85h.38c2.25-.05,4.57-.09,6.81,0,2.72.16,5.77,4.72,6.62,6.3a1.35,1.35,0,0,0,1.08.7c4.09.32,5.71.74,6.45,4h0c.79,3.43-1,7.26-2.58,10.63-.28.6-.55,1.19-.8,1.76-.47,1-3.77,6.19-6.88,10.94l.23-4.19,2.82-4.23a4.11,4.11,0,0,0-.6-5.29,4.22,4.22,0,0,0-1.63-.93c.44-7.8.42-7.81,0-8.22A1.39,1.39,0,0,0,68,25.56C61.7,26.31,44,28,37.5,26.91,32,26,27.74,19.28,26,16,29.72,15.77,33.47,15.55,37.21,15.34Z" fill="#010101"/><path d="M11.89,41a1.33,1.33,0,0,0-1.63-1,1.34,1.34,0,0,0-1,1.64,10.73,10.73,0,0,0,6.35,7.23V51H14.31a1.34,1.34,0,1,0,0,2.68h1.34v1.34a4,4,0,1,0,8,0V53.72H25A1.34,1.34,0,0,0,25,51H23.7V48.91A10.73,10.73,0,1,0,9.3,36.26a1.34,1.34,0,1,0,2.59.68,8,8,0,1,1,9.12,10V42.62l3.11-1A1.34,1.34,0,1,0,23.27,39l-3.6,1.2L16.07,39a1.34,1.34,0,1,0-.85,2.54l3.11,1V46.9A8,8,0,0,1,11.89,41ZM21,55.06a1.34,1.34,0,1,1-2.68,0V53.72H21Zm0-4H18.33V49.6a10,10,0,0,0,1.34.1A11.75,11.75,0,0,0,21,49.61Z" fill="#010101"/><path d="M12,27.84a1.32,1.32,0,0,0,1.89,0,1.32,1.32,0,0,0,0-1.89l-2.68-2.69a1.34,1.34,0,0,0-1.9,1.9Z" fill="#010101"/><path d="M19.67,26.89A1.34,1.34,0,0,0,21,25.55v-4a1.34,1.34,0,0,0-2.68,0v4A1.34,1.34,0,0,0,19.67,26.89Z" fill="#010101"/></svg>