<svg id="Layer_1" data-name="Layer 1" xmlns="http://www.w3.org/2000/svg" viewBox="0 0 100 100"><path d="M91.4,15a3.77,3.77,0,0,0-6.26-2.54l-10.8,9.61H65V17.77a6.91,6.91,0,1,0-10.89-6.85h-.21a4.11,4.11,0,0,0,0,8.22,4,4,0,0,0,2.88-1.19v6a5.48,5.48,0,0,0-1.4,3.66v4.72a1.31,1.31,0,0,0,2.62,0V27.61a2.9,2.9,0,0,1,2.89-2.89H73.5l1.15,2.94a5.46,5.46,0,0,1-.58,0H63.52a1.31,1.31,0,0,0,0,2.62h3.11c0,4.76-2.17,9.56-4.29,13.17l-4.65-6.17a1.32,1.32,0,0,0-1-.52,12.42,12.42,0,0,0-8.73,3.89,4.19,4.19,0,0,1-2.82,1.22L33,42.4a1.3,1.3,0,0,0-1.26,1.3A3.55,3.55,0,0,0,32,44.94L13.35,47.27l-1.88-.47a4.11,4.11,0,0,0-5.11,4v2a1.31,1.31,0,0,0,1.31,1.31H34.79c.29.23.59.44.88.64a4.83,4.83,0,0,1,1.14,1,4.73,4.73,0,0,1,.45,1.43A5.42,5.42,0,0,0,38.51,60a5.35,5.35,0,0,0,2.83,1.25,4.73,4.73,0,0,1,1.43.45,5,5,0,0,1,.95,1.14A5.38,5.38,0,0,0,46,65,5.28,5.28,0,0,0,49,65a5,5,0,0,1,1.52-.13,4.93,4.93,0,0,1,1.29.68,5.41,5.41,0,0,0,2.92,1.13,3.74,3.74,0,0,0,1.54-.35L54.07,86.47H52.36V70.17a1.31,1.31,0,1,0-2.62,0V93.38a1.31,1.31,0,0,0,1.31,1.31h8.39a1.32,1.32,0,0,0,1.05-2.1L56.6,87.41l2.51-22.54A6.17,6.17,0,0,1,60.5,65,5.28,5.28,0,0,0,63.57,65a1.31,1.31,0,0,0,.81-1.26l-.69-17.4a44.37,44.37,0,0,0,2.66-4.78h13.3a3.49,3.49,0,0,0,.27-7l-11-.85a21.14,21.14,0,0,0,.31-3.38h4.82a6.87,6.87,0,0,0,4.64-1.8L90.18,18.11A3.76,3.76,0,0,0,91.4,15ZM12,51.49H9v-.7a1.49,1.49,0,0,1,1.85-1.45l1.13.28v1.87Zm2.62-1.73,18.8-2.35a1.85,1.85,0,0,1,.2.51,4.68,4.68,0,0,1-.13,1.51,7.76,7.76,0,0,0-.17,2.06H14.58ZM52.36,92.07v-3h2.23l2.23,3ZM61,62.44a6.8,6.8,0,0,0-2.48-.12,6.58,6.58,0,0,0-2.2,1,3.63,3.63,0,0,1-1.51.72,3.63,3.63,0,0,1-1.51-.72,6.49,6.49,0,0,0-2.2-1,4.4,4.4,0,0,0-.8-.07,9.8,9.8,0,0,0-1.68.19,3.72,3.72,0,0,1-1.61.1,3.78,3.78,0,0,1-1.1-1.23,6.54,6.54,0,0,0-1.64-1.82,6.7,6.7,0,0,0-2.33-.84,3.6,3.6,0,0,1-1.54-.54,3.74,3.74,0,0,1-.54-1.53A6.53,6.53,0,0,0,39,54.25a6.62,6.62,0,0,0-1.83-1.65,3.63,3.63,0,0,1-1.22-1.1A3.64,3.64,0,0,1,36,49.9a6.64,6.64,0,0,0,.12-2.49,6.39,6.39,0,0,0-1-2.2c-.06-.09-.12-.18-.17-.27l10.25-.41a6.82,6.82,0,0,0,4.57-2A10.11,10.11,0,0,1,56,39.44l5.05,6.71.66,16.42c-.24,0-.5-.08-.76-.13ZM79.72,37.16a.87.87,0,0,1-.07,1.74H67.48c.32-.85.62-1.73.87-2.62ZM60.84,16.51a4.27,4.27,0,0,1-2.34-.7l6.13-5.6a4.29,4.29,0,0,1-3.79,6.3Zm0-8.58a4.33,4.33,0,0,1,1.91.45l-5.91,5.39a4.4,4.4,0,0,1-.29-1.55A4.3,4.3,0,0,1,60.84,7.93Zm-7,8.58a1.49,1.49,0,0,1,0-3l.21,0a6.89,6.89,0,0,0,1,2.38,1.49,1.49,0,0,1-1.17.58Zm5.5,5.8V19a6.61,6.61,0,0,0,3,0v3.15H60.84A5.64,5.64,0,0,0,59.35,22.31Zm29.06-6.14L77,26.53l-1-2.45,10.82-9.62a1.14,1.14,0,0,1,1.4-.1,1.19,1.19,0,0,1,.51.87,1.15,1.15,0,0,1-.38.94Z"/></svg>