<svg id="Layer_1" data-name="Layer 1" xmlns="http://www.w3.org/2000/svg" viewBox="0 0 100 100"><title>daycare</title><path d="M82.35,43.74A35.2,35.2,0,0,0,68.1,27H80.25V8.88H76.39A33.89,33.89,0,0,0,54.27,17.1L49.78,21,45.3,17.1A33.91,33.91,0,0,0,23.18,8.88H19.31V27H31.47A35.09,35.09,0,0,0,17.22,43.74a13.43,13.43,0,0,0,0,26.34,35.13,35.13,0,0,0,65.13,0,13.43,13.43,0,0,0,0-26.34ZM57.64,21a28.7,28.7,0,0,1,17.45-6.94v7.72H56.73ZM24.47,14.07A28.7,28.7,0,0,1,41.92,21l.91.78H24.47ZM80.3,65.15l-1.69.12L78,66.87a30,30,0,0,1-56.52,0L21,65.27l-1.7-.12a8.26,8.26,0,0,1,0-16.48l1.7-.12.56-1.6A30,30,0,0,1,78,47l.57,1.6,1.69.12a8.26,8.26,0,0,1,0,16.48Z" fill="#010101"/><path d="M35.84,48.82H41v8.61H35.84Z" fill="#010101"/><path d="M58.91,48.82h5.16v8.61H58.91Z" fill="#010101"/><path d="M49.78,75.68a4.14,4.14,0,0,1-4.13-4.14H40.48a9.3,9.3,0,0,0,18.6,0H53.91A4.14,4.14,0,0,1,49.78,75.68Z" fill="#010101"/><path d="M30.59,62.08h5.16v5.16H30.59Z" fill="#010101"/><path d="M64.5,62.08h5.17v5.16H64.5Z" fill="#010101"/></svg>