<svg id="Layer_1" data-name="Layer 1" xmlns="http://www.w3.org/2000/svg" viewBox="0 0 100 100"><title>ecision-making</title><path d="M15.56,27.21V60.42a5.7,5.7,0,0,0,5.67,5.67H77.12a5.71,5.71,0,0,0,5.67-5.67V38.82A17.17,17.17,0,0,0,65.64,21.68H21.09A5.39,5.39,0,0,0,15.56,27.21ZM81.17,38.82v21.6a4.35,4.35,0,0,1-4.32,4.32H21.09a4.35,4.35,0,0,1-4.32-4.32V27.21a4.35,4.35,0,0,1,4.32-4.32H65.37A15.85,15.85,0,0,1,81.17,38.82Z" fill="#010101"/><path d="M65.37,13.71a1.76,1.76,0,0,0,0,3.51,22,22,0,0,1,22,22V60.82A10.54,10.54,0,0,1,76.85,71.35H57.41L49.17,89.58c0,.13-.27.13-.27,0L40.67,71.35H21.09A10.54,10.54,0,0,1,10.56,60.82V27.62A10.54,10.54,0,0,1,21.09,17.09H40.8a1.76,1.76,0,1,0,0-3.51H21.09a14.15,14.15,0,0,0-13.77,14v33.2A13.89,13.89,0,0,0,21.23,74.73H38.51L45.8,91.06a3.6,3.6,0,0,0,3.24,2,3.51,3.51,0,0,0,3.24-2.16l7.29-16.34H76.85a13.88,13.88,0,0,0,13.9-13.9V39.09A25.44,25.44,0,0,0,65.37,13.71Z" fill="#010101"/><path d="M20,45.84l7.7,7.56a2.5,2.5,0,0,0,1.62.67A2.83,2.83,0,0,0,31,53.4L46.34,39.23A1.72,1.72,0,0,0,44,36.66L29.33,50.29l-7-6.88A1.68,1.68,0,1,0,20,45.84Z" fill="#010101"/><path d="M53.9,47.73h9.85v9.85a1.76,1.76,0,1,0,3.51,0V47.73H77a1.76,1.76,0,1,0,0-3.51H67.26V34.5a1.76,1.76,0,0,0-3.51,0v9.72H53.9a1.76,1.76,0,1,0,0,3.51Z" fill="#010101"/><circle cx="46.88" cy="15.47" r="1.75" fill="#010101"/></svg>