<svg id="Layer_1" data-name="Layer 1" xmlns="http://www.w3.org/2000/svg" viewBox="0 0 100 100"><title>emotion</title><rect x="70.43" y="7.7" width="2.81" height="2.81" fill="#010101"/><rect x="73.24" y="10.51" width="2.81" height="2.81" fill="#010101"/><rect x="67.62" y="10.51" width="2.81" height="2.81" fill="#010101"/><rect x="70.43" y="13.32" width="2.81" height="2.81" fill="#010101"/><rect x="84.5" y="24.58" width="2.81" height="2.81" fill="#010101"/><rect x="87.31" y="27.39" width="2.81" height="2.81" fill="#010101"/><rect x="81.68" y="27.39" width="2.81" height="2.81" fill="#010101"/><rect x="84.5" y="30.2" width="2.81" height="2.81" fill="#010101"/><path d="M28.13,17.6l.21,2.81c.43,0,.87-.05,1.3-.05a16.86,16.86,0,0,1,3.88.45l.65-2.74a19.75,19.75,0,0,0-4.53-.53C29.13,17.54,28.63,17.56,28.13,17.6Z" fill="#010101"/><path d="M23.43,52.93a15.72,15.72,0,0,1-2.26-1.1l-1.42,2.43a19,19,0,0,0,2.64,1.29Z" fill="#010101"/><path d="M10.17,34.3l2.78.41a18.5,18.5,0,0,1,.56-2.45l-2.68-.83A20.22,20.22,0,0,0,10.17,34.3Z" fill="#010101"/><path d="M13.36,26.16l2.33,1.58a17.39,17.39,0,0,1,1.57-2l-2.07-1.91A21.47,21.47,0,0,0,13.36,26.16Z" fill="#010101"/><path d="M10.82,43l2.69-.82A16.2,16.2,0,0,1,13,39.74l-2.78.41A18.9,18.9,0,0,0,10.82,43Z" fill="#010101"/><path d="M13.35,48.3a21.47,21.47,0,0,0,1.83,2.3l2.07-1.91a17.39,17.39,0,0,1-1.57-2Z" fill="#010101"/><path d="M22.41,18.92a18.89,18.89,0,0,0-2.64,1.28l1.4,2.43a17.58,17.58,0,0,1,2.27-1.1Z" fill="#010101"/><path d="M28.34,54.06l-.21,2.81c.5,0,1,.06,1.51.06a20,20,0,0,0,3.28-.28l-.46-2.77a17.68,17.68,0,0,1-2.82.23C29.21,54.11,28.77,54.1,28.34,54.06Z" fill="#010101"/><rect x="46.52" y="70.99" width="2.81" height="21.1" fill="#010101"/><rect x="66.21" y="70.99" width="2.81" height="21.1" fill="#010101"/><rect x="9.95" y="86.46" width="2.81" height="2.81" fill="#010101"/><rect x="9.95" y="78.02" width="2.81" height="2.81" fill="#010101"/><rect x="9.95" y="61.14" width="2.81" height="2.81" fill="#010101"/><rect x="9.95" y="69.58" width="2.81" height="2.81" fill="#010101"/><path d="M15.78,56.16l-1.3-2.49a8.49,8.49,0,0,0-2.81,2.38l2.24,1.7A5.61,5.61,0,0,1,15.78,56.16Z" fill="#010101"/><rect x="18.39" y="70.99" width="2.81" height="2.81" fill="#010101"/><rect x="18.39" y="79.43" width="2.81" height="2.81" fill="#010101"/><rect x="18.39" y="87.87" width="2.81" height="2.81" fill="#010101"/><circle cx="50.74" cy="34.42" r="2.81" fill="#010101"/><circle cx="64.8" cy="34.42" r="2.81" fill="#010101"/><path d="M57.77,51.3a9.86,9.86,0,0,0,9.85-9.85H64.8a7,7,0,1,1-14.06,0H47.93A9.85,9.85,0,0,0,57.77,51.3Z" fill="#010101"/><path d="M19.8,49.89h2.81a5.63,5.63,0,0,1,11.25,0h2.82a8.44,8.44,0,0,0-16.88,0Z" fill="#010101"/><path d="M18.11,35.8l7,1.41a.88.88,0,0,0,.28,0,1.4,1.4,0,0,0,1.41-1.4V33H24v1.09L18.67,33Z" fill="#010101"/><path d="M32.46,33v2.81a1.4,1.4,0,0,0,1.4,1.4h.22l4-.63c0,.22,0,.42,0,.64a19.53,19.53,0,0,0,3.8,11.58,17,17,0,0,1-6,4.09l1,2.61A19.73,19.73,0,0,0,43.7,51a19.76,19.76,0,0,0,2,1.78,8.45,8.45,0,0,0-7.61,8.39v31h2.81V61.14a5.63,5.63,0,0,1,5.63-5.62h4a19.52,19.52,0,0,0,14.53,0h4a5.63,5.63,0,0,1,5.63,5.62v31h2.81V61.14a8.44,8.44,0,0,0-7.6-8.39A19.67,19.67,0,1,0,45.72,21.69a18.16,18.16,0,0,0-2,1.8,19.78,19.78,0,0,0-6.46-4.42l-1.09,2.59a16.85,16.85,0,0,1,5.73,4,19.45,19.45,0,0,0-3.46,8l-3.15.49V33ZM57.77,20.36A16.88,16.88,0,1,1,40.89,37.23,16.87,16.87,0,0,1,57.77,20.36Z" fill="#010101"/><rect x="80.28" y="48.49" width="2.81" height="2.81" fill="#010101"/><rect x="84.5" y="61.14" width="2.81" height="2.81" fill="#010101"/><rect x="50.74" y="9.11" width="2.81" height="2.81" fill="#010101"/></svg>