<svg id="Layer_1" data-name="Layer 1" xmlns="http://www.w3.org/2000/svg" viewBox="0 0 100 100"><title>empathy</title><path d="M54.44,39.69v-.32l.32-1.28A2.69,2.69,0,0,1,57.13,36a22.21,22.21,0,0,0,2.24-.41c.72-.16,1-.26,1.51-.41a1.38,1.38,0,0,1,1.52.37,2.39,2.39,0,0,1,.28.35,2.93,2.93,0,0,1,.5,1.84,1.52,1.52,0,0,0,1.08,1.44c5.38,1.65,20.13,6.73,23.6,10.24A1.51,1.51,0,1,0,90,47.33C85.8,43.12,70.2,38,66.11,36.72v-.24c0-.22-.11-.43-.18-.64a4.34,4.34,0,0,0-.25-.54,2.24,2.24,0,0,0-.13-.27,4,4,0,0,0-.34-.56l-.13-.22-.38-.54-.18-.21A4.38,4.38,0,0,0,60,32.36a13.48,13.48,0,0,1-1.42.38c-.53.12-1.11.21-1.71.29a5.92,5.92,0,0,0-2.4.89,5.8,5.8,0,0,0-2.34,3.24v.2h0l-.31,1.26a2.94,2.94,0,0,0,0,.42l-2.62.88a11,11,0,0,0-5.68,3.88l-1.7,2.27A10.69,10.69,0,0,0,40,49.66l-1.84,6.41a1.92,1.92,0,0,1-3.77-.55v-1c.15-1.06,1.73-11.46,6.86-16.9h0a30.63,30.63,0,0,1,6.15-5.27,50.88,50.88,0,0,0,6-4.66,4.82,4.82,0,0,1,5-.42L70,33.07a13.65,13.65,0,0,0,7.33,1.35l11.73-1.18a1.52,1.52,0,0,0-.3-3L77,31.39a10.44,10.44,0,0,1-5.66-1L59.79,24.54a7.77,7.77,0,0,0-8.22.69l-.5.43a4.73,4.73,0,0,1-4.06.82,7.7,7.7,0,0,0-6.62,1.37,40.83,40.83,0,0,1-7.81,4.66,14.45,14.45,0,0,0-3.39,2.24h0a9.56,9.56,0,0,0-7.06,3.11,37.57,37.57,0,0,0-7.79,1.33,4.84,4.84,0,0,0-2.25,1.52h0l-.17.22a4.51,4.51,0,0,0-.54.85c0,.15-.14.29-.2.44a.72.72,0,0,0-.09.2v.32c0,.1-.08.35-.11.51a2.67,2.67,0,0,0,0,.49,4.61,4.61,0,0,0,0,.91,2.09,2.09,0,0,0,.08.34,4.33,4.33,0,0,0,.21.7,1.38,1.38,0,0,0,.14.3,3.71,3.71,0,0,0,.54.9,4.6,4.6,0,0,0,.83.82,2.39,2.39,0,0,0,.34.21,3.33,3.33,0,0,0,.66.38l.43.15c.22.08.45.14.68.2H16.6a9.37,9.37,0,0,0,0,1.06l.15,3.83a4.71,4.71,0,0,0,2.47,4,4.82,4.82,0,0,0,1.11.43h.39l.71.09h0a3.76,3.76,0,0,0,.81-.11h.35a4.1,4.1,0,0,0,1.1-.47c.3-.18.61-.39.9-.6h0l.27,2.21a4.37,4.37,0,0,0,.29,1.13l.15.31a5.41,5.41,0,0,0,.38.71l.13.15a7,7,0,0,0,.62.71c.11.09.25.15.35.24a3.72,3.72,0,0,0,.61.43h0a4.8,4.8,0,0,0,2.29.57h0a4.53,4.53,0,0,0,1.1-.13,1.45,1.45,0,0,0,.29-.11,5.29,5.29,0,0,0,.76-.27H32a4.77,4.77,0,0,0,2.22-2.71,4.83,4.83,0,0,0,2.2.54A5,5,0,0,0,41.14,57L43,50.63A8,8,0,0,1,44.25,48L46,45.68a8,8,0,0,1,3.87-2.81l1.7-.56a7.06,7.06,0,0,0,.21.79A8.06,8.06,0,0,0,56,47.8h0l1.51.77.53.32c.38.23.76.45,1.13.69l.27.19L51.63,54a6.17,6.17,0,0,0-2.58,2.65L45.87,63a17,17,0,0,1-2.82-2,1.51,1.51,0,0,0-2.14,0h0a1.51,1.51,0,0,0,0,2.14,20.18,20.18,0,0,0,4.89,3.29A38.64,38.64,0,0,0,56.5,70.67a14.63,14.63,0,0,1,4.22,1.71,10,10,0,0,1,.86.58,4.94,4.94,0,0,1,.44.36l.29.25a5.93,5.93,0,0,1,.44.43l.16.19a3.54,3.54,0,0,1,.35.42,4,4,0,0,1,.83,3.18.56.56,0,0,1-.27.38.52.52,0,0,1-.47.08,44.83,44.83,0,0,0-9.24-1.06h0S49.57,77.06,38,72.73a82.93,82.93,0,0,1-15.68-7.84A27.89,27.89,0,0,0,12.59,61l-2.12-.42a1.55,1.55,0,1,0-.61,3L12,64a25.14,25.14,0,0,1,8.68,3.5A84.81,84.81,0,0,0,36.9,75.61c12.24,4.55,17,4.65,17.2,4.65a42.37,42.37,0,0,1,8.54,1,4.12,4.12,0,0,0,.86.1,3.64,3.64,0,0,0,3.56-3,6.56,6.56,0,0,0,0-2.72h.55c.13,0,13.63,1.51,21.07,3H89a1.52,1.52,0,0,0,.31-3c-7.58-1.52-20.79-3-21.39-3l-2.43-.19-.16-.18a2.62,2.62,0,0,0-.22-.25l-.39-.38-.33-.31L64,71l-.5-.34-.31-.23c-.27-.19-.56-.4-.87-.6a17.51,17.51,0,0,0-5.09-2.08,38.75,38.75,0,0,1-8.74-3.24L51.76,58a3.16,3.16,0,0,1,1.31-1.35l9-4.84a52.25,52.25,0,0,1,4.55,4.66,1.51,1.51,0,0,0,2.14.12h0a1.52,1.52,0,0,0,.12-2.14,69.19,69.19,0,0,0-5.7-5.66h0a30.62,30.62,0,0,0-3-2.14h0l-.3-.18c-.39-.24-.79-.49-1.18-.7s-1-.51-1.51-.76a5,5,0,0,1-.9-.51,4.89,4.89,0,0,1-1.77-2.38h0a4.23,4.23,0,0,1-.21-1.17h0A4.74,4.74,0,0,1,54.44,39.69Zm-20.6-4.42a44.24,44.24,0,0,0,8.38-5,4.72,4.72,0,0,1,4-.82h0l-.59.41A34.46,34.46,0,0,0,39,35.53h0a31,31,0,0,0-6.41,12.71h0c-.1.38-.19.74-.28,1.1v.08c-.09.38-.19.74-.26,1.09h0c-.24,1.06-.41,2-.52,2.57h0v.53h0V58.3a1.69,1.69,0,0,1,0,.45v.12a1.69,1.69,0,0,1-.78,1l-.16.1L30.4,60h-1l-.31-.12H29a1.89,1.89,0,0,1-.63-.56,1.79,1.79,0,0,1-.31-.82l-.54-4.38-.09-.89h0V50.61a27.43,27.43,0,0,1,.18-2.87l.39-4a10.89,10.89,0,0,1,.34-1.7v-.24a10.58,10.58,0,0,1,2.81-4.55h0A11.51,11.51,0,0,1,33.84,35.27ZM26.16,38.5c0,.1-.11.22-.17.33-.18.35-.34.71-.5,1.07a4.55,4.55,0,0,0-.19.55c-.06.18-.23.68-.34,1a3.74,3.74,0,0,0-.12.48,13.29,13.29,0,0,0-.27,1.51l-.39,4h0c0,.53-.09,1-.13,1.52v4l-.07.09a6.92,6.92,0,0,1-.86.93l-.16.13a7.41,7.41,0,0,1-.95.72,1.53,1.53,0,0,1-1.52,0,1.71,1.71,0,0,1-.89-1.44l-.15-3.84a6.55,6.55,0,0,1,.33-2.24h0a8.39,8.39,0,0,1,.29-.79l.38-.71,3.14-5A6.35,6.35,0,0,1,26.16,38.5Zm-6.32,2.62-1.95,3.12a11.38,11.38,0,0,0-.67,1.24l-1.41.18a1.86,1.86,0,0,1-1.63-.74,2,2,0,0,1-.29-.56v-.12a1.88,1.88,0,0,1,.42-1.64h0a1.87,1.87,0,0,1,.84-.51A35.81,35.81,0,0,1,19.84,41.12Z" fill="#010101"/></svg>