<svg id="Layer_1" data-name="Layer 1" xmlns="http://www.w3.org/2000/svg" viewBox="0 0 100 100"><title>gymnast-01</title><path d="M88.62,9.59H58.1a1.22,1.22,0,1,0,0,2.44H88.21v3.25H9.62V12H50.49a1.22,1.22,0,0,0,0-2.44H9.21a2,2,0,0,0-2,2v4a2,2,0,0,0,2,2H30V52.5a2,2,0,0,0-1,.61c-9,2.27-15.58,10-15.58,19,0,10.89,9.47,19.75,21.1,19.75a21.21,21.21,0,0,0,19.4-12,22.27,22.27,0,0,0,9.37,2c11.63,0,21.1-8.86,21.1-19.74,0-9.1-6.61-16.78-15.57-19.06a2.17,2.17,0,0,0-1-.61V17.72H88.62a2,2,0,0,0,2-2v-4A2,2,0,0,0,88.62,9.59ZM61.18,17.72h4.24V42.49H61.18ZM59.7,44.94h7.2V49H59.7ZM39.1,17.72H58.73V42.57a2.17,2.17,0,0,0-1,.61A20.82,20.82,0,0,0,43.9,54.47a22.4,22.4,0,0,0-3.84-1.36,2,2,0,0,0-1-.61V17.72Zm3.92,39a18.3,18.3,0,0,0-.66,3.06A15.47,15.47,0,0,0,40.57,59V55.8A19.47,19.47,0,0,1,43,56.76Zm-10.61-39h4.25v34.7H32.41ZM30.94,54.86h7.19V59H30.94V54.86Zm-1.37,6.31a1.93,1.93,0,0,0,1,.24h8a2,2,0,0,0,1-.24,13.37,13.37,0,0,1,2.7,1.43,18.93,18.93,0,0,0,4.88,12.25c-1.32,5.28-6.44,9.23-12.55,9.23-7.1,0-12.88-5.35-12.88-11.92A12,12,0,0,1,29.57,61.17Zm5,28.29c-10.28,0-18.65-7.76-18.65-17.3,0-7.58,5.28-14,12.61-16.36V59a14.39,14.39,0,0,0-9.28,13.19c0,7.92,6.87,14.37,15.32,14.37A15.3,15.3,0,0,0,49,76.78a22.43,22.43,0,0,0,2.73,2A18.73,18.73,0,0,1,34.53,89.46ZM68.28,51.24a12.27,12.27,0,0,1,7.5,8,1.22,1.22,0,0,0,2.35-.65A14.62,14.62,0,0,0,69.34,49V45.87C76.67,48.2,82,54.66,82,62.24c0,9.54-8.37,17.3-18.66,17.3s-18.66-7.76-18.66-17.3c0-7.58,5.29-14,12.62-16.37V49A14.4,14.4,0,0,0,48,62.24C48,70.16,54.85,76.6,63.3,76.6a15.29,15.29,0,0,0,14.5-9.7,1.22,1.22,0,1,0-2.3-.84,12.83,12.83,0,0,1-12.2,8.09,13.53,13.53,0,0,1-7.67-2.34,19,19,0,0,0-4.88-12.27,12.29,12.29,0,0,1,7.58-8.3,2,2,0,0,0,1,.25h8A2,2,0,0,0,68.28,51.24ZM50.46,63.17a16.43,16.43,0,0,1,2.47,6.13A11.32,11.32,0,0,1,50.46,63.17Z" fill="#010101"/></svg>