<svg id="Layer_1" data-name="Layer 1" xmlns="http://www.w3.org/2000/svg" viewBox="0 0 100 100"><title>life</title><path d="M59.37,31.39a8.21,8.21,0,1,0-12.73,6.84H43.26l-10-4.57a4.71,4.71,0,0,0-4.9,8l11.91,9.57v7.5L37.34,71.11a5.51,5.51,0,0,0,10.6,3l3.23-9.62,3.22,9.61a5.51,5.51,0,0,0,10.6-3L62.1,58.69v-7.5L74,41.62a4.71,4.71,0,0,0-4.89-8L59.07,38.23H55.69A8.2,8.2,0,0,0,59.37,31.39Zm0,9.57a1.34,1.34,0,0,0,.56-.12l10.32-4.69a2,2,0,0,1,2,3.34l-12.42,10a1.37,1.37,0,0,0-.51,1.06v8.32a1.53,1.53,0,0,0,0,.3l2.92,12.58A2.78,2.78,0,0,1,57,73.25L52.46,59.77a1.36,1.36,0,0,0-1.72-.87,1.39,1.39,0,0,0-.88.87L45.34,73.25A2.78,2.78,0,0,1,40,71.73l2.92-12.58a1,1,0,0,0,0-.3V50.53a1.39,1.39,0,0,0-.51-1.07L30,39.48A1.94,1.94,0,0,1,29.29,38a2,2,0,0,1,2-2,2,2,0,0,1,.81.17L42.4,40.84A1.38,1.38,0,0,0,43,41Zm-8.2-4.1a5.47,5.47,0,1,1,5.46-5.47A5.47,5.47,0,0,1,51.17,36.86Z" fill="#010101"/><path d="M51.17,10.88a1.37,1.37,0,0,0-1.37,1.37V15a1.37,1.37,0,1,0,2.73,0V12.25A1.36,1.36,0,0,0,51.17,10.88Z" fill="#010101"/><path d="M51.17,90.18a1.37,1.37,0,0,0,1.36-1.37V86.08a1.37,1.37,0,1,0-2.73,0v2.73A1.37,1.37,0,0,0,51.17,90.18Z" fill="#010101"/><path d="M89.45,51.9a1.37,1.37,0,0,0,0-2.74H86.71a1.37,1.37,0,1,0,0,2.74Z" fill="#010101"/><path d="M12.89,49.16a1.37,1.37,0,0,0,0,2.74h2.73a1.37,1.37,0,0,0,0-2.74Z" fill="#010101"/><path d="M90.93,79.13h0c-6.46-1-7.15-1.74-8.21-8.21A1.49,1.49,0,0,0,81,69.69a1.51,1.51,0,0,0-1.23,1.23c-1,6.46-1.74,7.15-8.21,8.21a1.49,1.49,0,0,0,0,2.94c6.46,1.06,7.15,1.75,8.21,8.22a1.5,1.5,0,0,0,3,0c1-6.46,1.74-7.15,8.21-8.21a1.49,1.49,0,0,0,1.23-1.72A1.51,1.51,0,0,0,90.93,79.13ZM81.24,84.8a6.71,6.71,0,0,0-4.19-4.19,6.73,6.73,0,0,0,4.19-4.19,6.76,6.76,0,0,0,4.19,4.19A6.73,6.73,0,0,0,81.24,84.8Z" fill="#010101"/><path d="M11.4,21.92c6.47,1.06,7.16,1.75,8.22,8.22a1.49,1.49,0,0,0,2.94,0c1.06-6.46,1.75-7.15,8.22-8.21a1.5,1.5,0,0,0,0-2.95h0c-6.47-1.05-7.16-1.74-8.21-8.21a1.49,1.49,0,0,0-1.72-1.23,1.51,1.51,0,0,0-1.23,1.23c-1.06,6.46-1.75,7.15-8.22,8.21a1.51,1.51,0,0,0-1.23,1.72,1.49,1.49,0,0,0,1.23,1.22Zm9.69-5.66a6.71,6.71,0,0,0,4.19,4.19,6.73,6.73,0,0,0-4.19,4.19,6.76,6.76,0,0,0-4.19-4.19A6.73,6.73,0,0,0,21.09,16.26Z" fill="#010101"/><path d="M11.4,82.08c6.47,1.06,7.16,1.75,8.22,8.22a1.49,1.49,0,0,0,2.94,0h0c1.06-6.47,1.75-7.16,8.22-8.22a1.49,1.49,0,0,0,0-2.94c-6.47-1.06-7.16-1.75-8.21-8.22a1.5,1.5,0,0,0-2.95,0c-1.06,6.47-1.75,7.16-8.22,8.21a1.5,1.5,0,0,0,0,3Zm9.69-5.66a6.73,6.73,0,0,0,4.19,4.19,6.71,6.71,0,0,0-4.19,4.19,6.73,6.73,0,0,0-4.19-4.19A6.76,6.76,0,0,0,21.09,76.42Z" fill="#010101"/><path d="M90.93,19c-6.47-1.06-7.16-1.75-8.21-8.22a1.5,1.5,0,0,0-3,0C78.71,17.23,78,17.92,71.55,19a1.49,1.49,0,0,0,0,2.94C78,23,78.71,23.67,79.77,30.14a1.49,1.49,0,0,0,2.94,0h0c1.06-6.47,1.75-7.16,8.22-8.22a1.49,1.49,0,0,0,1.23-1.71A1.51,1.51,0,0,0,90.93,19Zm-9.69,5.66a6.73,6.73,0,0,0-4.19-4.19,6.71,6.71,0,0,0,4.19-4.19,6.73,6.73,0,0,0,4.19,4.19A6.76,6.76,0,0,0,81.24,24.64Z" fill="#010101"/></svg>