<svg id="Layer_1" data-name="Layer 1" xmlns="http://www.w3.org/2000/svg" viewBox="0 0 100 100"><path d="M91.47,8.29a3.07,3.07,0,0,0-2.36-.75L34.49,13.6a3,3,0,0,0-2.7,3V70.69a17.56,17.56,0,0,0-9.1-2.48c-8.37,0-15.17,5.44-15.17,12.13s6.8,12.14,15.17,12.14S37.86,87,37.86,80.34V34.52l48.55-5.41V64.62a17.56,17.56,0,0,0-9.1-2.48c-8.37,0-15.17,5.44-15.17,12.13s6.8,12.14,15.17,12.14S92.48,81,92.48,74.27V10.55A3.05,3.05,0,0,0,91.47,8.29ZM22.69,86.41c-4.93,0-9.1-2.78-9.1-6.07s4.17-6.07,9.1-6.07,9.1,2.78,9.1,6.07S27.62,86.41,22.69,86.41Zm54.62-6.07c-4.93,0-9.1-2.78-9.1-6.07s4.17-6.06,9.1-6.06,9.1,2.78,9.1,6.06S82.24,80.34,77.31,80.34ZM86.41,23,37.86,28.4v-9l48.55-5.41Z"/></svg>