<svg id="Layer_1" data-name="Layer 1" xmlns="http://www.w3.org/2000/svg" viewBox="0 0 100 100"><title>partnership</title><path d="M91.42,35.67l-6.75-8.49a6.23,6.23,0,0,0-8.24-1.39h0l-5.62,3.5a6,6,0,0,1-6,.17L60.34,27a9.49,9.49,0,0,0-9.79.34L49.49,28l-1-.63a11.8,11.8,0,0,0-11.4-.51l-1.57.8A10.28,10.28,0,0,1,26,27.39l-1.06-.59a7.61,7.61,0,0,0-9.41,1.6L8,36.89a6.19,6.19,0,0,0-1.56,4.65A6.3,6.3,0,0,0,8.7,45.89l6.67,5.61-3,3.21a6.14,6.14,0,0,0-1.64,4.39,6,6,0,0,0,1.94,4.27h0a6.55,6.55,0,0,0,2.87,1.52,6.11,6.11,0,0,0,1.39,7h0a6.09,6.09,0,0,0,4.18,1.64,5.59,5.59,0,0,0,2.2-.42,6.2,6.2,0,0,0,1.77,3.13h0a6.09,6.09,0,0,0,4.18,1.64,6.3,6.3,0,0,0,3.13-.84A5.66,5.66,0,0,0,34,79.71h0a6.12,6.12,0,0,0,4.19,1.65,6,6,0,0,0,4.47-2l2.62-2.78,4.14,3.46a5.86,5.86,0,0,0,3.67,1.35,5.72,5.72,0,0,0,4.27-1.9,5.13,5.13,0,0,0,1.22-2.19l1.27,1.14a6.2,6.2,0,0,0,10.26-3.68,6,6,0,0,0,6.25-1.69,6,6,0,0,0,1.35-5.49A5.52,5.52,0,0,0,81,65.82a5.72,5.72,0,0,0,1.48-4.23,5.59,5.59,0,0,0-2-4L80,57.2,91.17,44.49A6.83,6.83,0,0,0,91.42,35.67ZM15,60.88a2.88,2.88,0,0,1-.89-2,2.75,2.75,0,0,1,.76-2l6.63-7.1a2.77,2.77,0,0,1,3.93-.12,2.8,2.8,0,0,1,.13,4l-6.63,7.09a2.85,2.85,0,0,1-1.95.89,3,3,0,0,1-2-.76Zm4.22,8.53a2.93,2.93,0,0,1-.89-2,2.79,2.79,0,0,1,.76-2l9.08-9.72a2.81,2.81,0,0,1,4.1,3.85l-1.86,2h0l-2.53,2.7-4.73,5A2.8,2.8,0,0,1,19.17,69.41Zm8.15,4.35a2.93,2.93,0,0,1-.89-2,2.79,2.79,0,0,1,.76-2l3.09-3.3,2.53-2.7a2.81,2.81,0,0,1,4.1,3.84l-.72.76L33.74,71h0l-2.45,2.62A2.85,2.85,0,0,1,27.32,73.76Zm13,3.33a2.81,2.81,0,1,1-4.09-3.84l3.17-3.38h0A2.8,2.8,0,0,1,41.3,69a2.81,2.81,0,0,1,2.15,4.73ZM78.54,63.54a2.38,2.38,0,0,1-1.69.8,2.51,2.51,0,0,1-1.77-.63L63.68,53.06a1.67,1.67,0,1,0-2.28,2.45L73.77,67.17a2.68,2.68,0,0,1,.17,3.71,2.62,2.62,0,0,1-3.76.17l-2-1.81,0,0-9.62-8.7A1.67,1.67,0,1,0,56.29,63l9.63,8.74a3,3,0,0,1,.93,2,3.07,3.07,0,0,1-.76,2.11A2.91,2.91,0,0,1,62,76l-5.15-4.56,0,0L52,67a1.67,1.67,0,0,0-2.24,2.49l4.94,4.39a2.46,2.46,0,0,1,.81,1.65,2.22,2.22,0,0,1-.64,1.73,2.39,2.39,0,0,1-3.33.21l-4.39-3.67a6.2,6.2,0,0,0-1.61-6.51,6.13,6.13,0,0,0-4.39-1.64h-.21A5.93,5.93,0,0,0,39,61.17a6.2,6.2,0,0,0-3.09-1.56,6,6,0,0,0-1.6-6.5,6.15,6.15,0,0,0-4.77-1.61h0a5.83,5.83,0,0,0-1.95-4.26,6.08,6.08,0,0,0-8.65.29L17.57,49l-6.8-5.7a2.91,2.91,0,0,1-1.06-2,3.19,3.19,0,0,1,.72-2.19L18,30.56a4.24,4.24,0,0,1,5.27-.89l1.06.59a13.51,13.51,0,0,0,12.63.34l1.6-.8a8.44,8.44,0,0,1,7.86.17L43.16,32A6.34,6.34,0,0,0,41.42,41a6.35,6.35,0,0,0,8,2l2.44-1.22a5.23,5.23,0,0,1,5.71.67L76.43,58.55h0l1.77,1.52a2.36,2.36,0,0,1,.85,1.69A2,2,0,0,1,78.54,63.54ZM88.72,42.25,77.49,55,59.88,39.93a8.5,8.5,0,0,0-9.38-1.1l-2.45,1.23a2.94,2.94,0,0,1-3.75-1,2.9,2.9,0,0,1-.47-2.28,3.16,3.16,0,0,1,1.31-2l7.26-4.77a6.11,6.11,0,0,1,6.38-.21l4.48,2.49a9.2,9.2,0,0,0,9.37-.25l5.62-3.51a2.9,2.9,0,0,1,3.84.68l6.76,8.49A3.5,3.5,0,0,1,88.72,42.25Z" fill="#010101"/></svg>