<svg id="Layer_1" data-name="Layer 1" xmlns="http://www.w3.org/2000/svg" viewBox="0 0 100 100"><path d="M86.2,82.41A1.68,1.68,0,0,0,88.58,80l-5.76-5.76L72,63.44a9.67,9.67,0,0,0-2.7-8.4,14.4,14.4,0,0,0-3-2.3,1.78,1.78,0,0,0-.66-.36,20.36,20.36,0,0,0-5-1.71,27.29,27.29,0,0,0,.26-3.62,20.22,20.22,0,0,0-.29-3.4,1.72,1.72,0,0,0-.15-.76C58.9,36.26,54,32.4,50,29.2c-2.94-2.34-5.49-4.36-5.49-6.63V16.92a7.24,7.24,0,0,1,2-5l2.35-2.5a1.69,1.69,0,0,0-1.23-2.84H20.78a1.69,1.69,0,0,0-1.22,2.84l2.35,2.5a7.28,7.28,0,0,1,2,5v5.66c0,2.27-2.54,4.29-5.49,6.63C13.58,33,7.59,37.76,7.59,47.05c0,11.89,9.22,27.11,13.25,33.21H11a1.68,1.68,0,0,0-1.68,1.68v9.18A1.68,1.68,0,0,0,11,92.8H57.38a1.69,1.69,0,0,0,1.69-1.68V81.94a1.69,1.69,0,0,0-1.69-1.68H47.55A118.59,118.59,0,0,0,54.74,67.8a10.61,10.61,0,0,0,.85.94,9.65,9.65,0,0,0,6.84,2.83,10.7,10.7,0,0,0,1.39-.1L84.67,92.32a1.69,1.69,0,0,0,2.38,0,1.69,1.69,0,0,0,0-2.39L78.3,81.18l3.33-3.33ZM55.71,62.94a23.6,23.6,0,0,1-1.61-9.42,23.32,23.32,0,0,1,8.11,1.09,12,12,0,0,0-2.43,4.78,4.35,4.35,0,0,1-3,3.2ZM52.28,50.28a1.68,1.68,0,0,0-1.46,1.5c0,.08,0,.51-.08,1.19l-.36.6v0a2.35,2.35,0,0,1-2,1.17,2.38,2.38,0,0,1-2-1.17,5.73,5.73,0,0,0-9.91,0,2.38,2.38,0,0,1-4.1,0,5.74,5.74,0,0,0-9.92,0,2.38,2.38,0,0,1-4.1,0,5.67,5.67,0,0,0-4.17-2.8,5.84,5.84,0,0,0-2.76.29,24.58,24.58,0,0,1-.35-4,15,15,0,0,1,.19-2.47,1,1,0,0,0,.08-.14,2.38,2.38,0,0,1,2-1.17,2.35,2.35,0,0,1,2.05,1.17,5.74,5.74,0,0,0,9.92,0,2.38,2.38,0,0,1,4.1,0,5.67,5.67,0,0,0,5,2.85h0a5.68,5.68,0,0,0,5-2.85,2.38,2.38,0,0,1,4.1,0,5.73,5.73,0,0,0,9.91,0,2.36,2.36,0,0,1,2-1.17,2.34,2.34,0,0,1,1.84.87,15,15,0,0,1,.27,2.91,23.75,23.75,0,0,1-.23,3.16A27.05,27.05,0,0,0,52.28,50.28Zm-25-27.71v-4H41.14v4a6.63,6.63,0,0,0,.25,1.8H27A6.63,6.63,0,0,0,27.25,22.57ZM43.73,10a10.63,10.63,0,0,0-2.45,5.28H27.12A10.63,10.63,0,0,0,24.67,10ZM20.48,31.84a34.55,34.55,0,0,0,4.6-4.1H43.32a34.44,34.44,0,0,0,4.59,4.1c2.82,2.23,5.88,4.66,7.75,8.07h-.33a5.69,5.69,0,0,0-5,2.84,2.37,2.37,0,0,1-4.1,0,5.74,5.74,0,0,0-9.91,0,2.37,2.37,0,0,1-4.1,0,5.75,5.75,0,0,0-9.92,0,2.37,2.37,0,0,1-4.1,0,5.68,5.68,0,0,0-5-2.84,5.07,5.07,0,0,0-.55,0C14.6,36.51,17.66,34.08,20.48,31.84ZM55.7,89.43h-43v-5.8h43ZM24.92,80.26c-.61-.88-1.73-2.53-3.08-4.72H34.2a1.68,1.68,0,1,0,0-3.36H19.83A78.21,78.21,0,0,1,12,54.45a2.38,2.38,0,0,1,1.58-.32,2.33,2.33,0,0,1,1.71,1.15,5.74,5.74,0,0,0,9.92,0,2.38,2.38,0,0,1,4.1,0,5.74,5.74,0,0,0,9.92,0,2.38,2.38,0,0,1,4.1,0,5.66,5.66,0,0,0,5,2.85,5.8,5.8,0,0,0,2.59-.6,23.24,23.24,0,0,0,1.74,6.82,115.27,115.27,0,0,1-9.17,15.91ZM58,66.35c-.16-.15-.3-.31-.44-.47l.2-.06a7.74,7.74,0,0,0,5.33-5.69,9.25,9.25,0,0,1,2.28-4,11.79,11.79,0,0,1,1.56,1.28A6.31,6.31,0,0,1,58,66.35Zm11.31,2.39a9.88,9.88,0,0,0,1.43-1.82l8.54,8.55L75.92,78.8l-8.57-8.57A9.41,9.41,0,0,0,69.28,68.74Z"/><path d="M40.93,72.18a1.72,1.72,0,0,0-1.19.49,1.69,1.69,0,0,0,0,2.38,1.72,1.72,0,0,0,1.19.49,1.68,1.68,0,1,0,0-3.36Z"/><path d="M92.15,87.67A1.71,1.71,0,0,1,91,87.18a1.7,1.7,0,0,1,0-2.39,1.69,1.69,0,0,1,2.38,0,1.7,1.7,0,0,1,0,2.39A1.71,1.71,0,0,1,92.15,87.67Z"/><path d="M71.3,23.7A1.69,1.69,0,0,1,69.61,22V19.89a1.69,1.69,0,0,1,3.37,0V22A1.68,1.68,0,0,1,71.3,23.7Z"/><path d="M71.3,33.91a1.69,1.69,0,0,1-1.69-1.68V30.1a1.69,1.69,0,1,1,3.37,0v2.13A1.68,1.68,0,0,1,71.3,33.91Z"/><path d="M77.47,27.74H75.34a1.69,1.69,0,1,1,0-3.37h2.13a1.69,1.69,0,0,1,0,3.37Z"/><path d="M67.26,27.74H65.13a1.69,1.69,0,1,1,0-3.37h2.13a1.69,1.69,0,0,1,0,3.37Z"/></svg>