<svg id="Layer_1" data-name="Layer 1" xmlns="http://www.w3.org/2000/svg" viewBox="0 0 100 100"><title>problem-solving</title><path d="M91,10.91V89a1.86,1.86,0,0,1-1.86,1.86H84a1.87,1.87,0,1,1,0-3.73h3.22V12.77H66.68V42.28h8.89V31.18a1.87,1.87,0,0,1,3.74,0V52.79a1.87,1.87,0,1,1-3.74,0V46H66.68V60.6a1.87,1.87,0,0,1-1.87,1.87H43.74v5.78a1.87,1.87,0,1,1-3.73,0V62.47H22.29a1.87,1.87,0,1,1,0-3.73H62.94v-46H12.85v4.7a1.87,1.87,0,1,1-3.74,0V10.91A1.87,1.87,0,0,1,11,9H89.1A1.87,1.87,0,0,1,91,10.91ZM73.45,66.38a1.87,1.87,0,0,0-1.86,1.87V87.16H55.87V72.24a1.87,1.87,0,1,0-3.73,0v5.05H23A1.87,1.87,0,1,0,23,81H52.14v6.14H12.85V50.5H51.9a1.86,1.86,0,0,0,1.87-1.86V34.78a1.87,1.87,0,0,0-1.87-1.87h-12a1.87,1.87,0,0,0,0,3.74H50V46.77H12.85V31.21h12.2v6.12a1.87,1.87,0,1,0,3.73,0V26H52.22a1.87,1.87,0,0,0,0-3.74H26.91a1.87,1.87,0,0,0-1.86,1.87v3.35H11a1.87,1.87,0,0,0-1.87,1.87V89A1.87,1.87,0,0,0,11,90.89H73.45A1.87,1.87,0,0,0,75.32,89V68.25A1.87,1.87,0,0,0,73.45,66.38Z" fill="#010101"/></svg>