<svg id="Layer_1" data-name="Layer 1" xmlns="http://www.w3.org/2000/svg" viewBox="0 0 100 100"><title>ratio</title><path d="M26.44,41.31h20.5l2.1,2a1.52,1.52,0,0,0,2.13,0l2.09-2H73.51a3.77,3.77,0,0,0,3.77-3.78V8.78A3.77,3.77,0,0,0,73.51,5H53.34a4.68,4.68,0,0,0-3.57,1.65A4.65,4.65,0,0,0,46.2,5H26.44a3.77,3.77,0,0,0-3.78,3.77V37.53A3.78,3.78,0,0,0,26.44,41.31ZM50.89,9.68a2.45,2.45,0,0,1,2.45-2.45H73.51a1.56,1.56,0,0,1,1.55,1.55V37.53a1.55,1.55,0,0,1-1.55,1.55H53a1.53,1.53,0,0,0-1.06.43l-.73.71-.3-30.54Zm-26-.9a1.55,1.55,0,0,1,1.55-1.55H46.2a2.46,2.46,0,0,1,2.46,2.46h0L49,40.17l-.67-.66a1.53,1.53,0,0,0-1.06-.43H26.44a1.54,1.54,0,0,1-1.55-1.55Z" fill="#010101"/><path d="M35.93,13.05h8.32a1.12,1.12,0,1,0,0-2.23H35.93a1.12,1.12,0,0,0,0,2.23Z" fill="#010101"/><path d="M28.72,13.05h3.22a1.12,1.12,0,0,0,0-2.23H28.72a1.12,1.12,0,0,0,0,2.23Z" fill="#010101"/><path d="M44.25,18.06H42.33a1.11,1.11,0,0,0,0,2.22h1.92a1.11,1.11,0,1,0,0-2.22Z" fill="#010101"/><path d="M28.72,20.28h9.62a1.11,1.11,0,1,0,0-2.22H28.72a1.11,1.11,0,0,0,0,2.22Z" fill="#010101"/><path d="M44.25,25.3H32.73a1.11,1.11,0,1,0,0,2.22H44.25a1.11,1.11,0,1,0,0-2.22Z" fill="#010101"/><path d="M28.7,27.52h0a1.11,1.11,0,1,0,0-2.22h0a1.11,1.11,0,0,0,0,2.22Z" fill="#010101"/><path d="M44.25,32.54h-1.1a1.11,1.11,0,0,0,0,2.22h1.1a1.11,1.11,0,1,0,0-2.22Z" fill="#010101"/><path d="M39.11,32.54H28.72a1.11,1.11,0,0,0,0,2.22H39.11a1.11,1.11,0,0,0,0-2.22Z" fill="#010101"/><path d="M69.21,13.05h1.71a1.12,1.12,0,0,0,0-2.23H69.21a1.12,1.12,0,1,0,0,2.23Z" fill="#010101"/><path d="M55.38,13.05h9.71a1.12,1.12,0,0,0,0-2.23H55.38a1.12,1.12,0,0,0,0,2.23Z" fill="#010101"/><path d="M70.91,18.06H61.82a1.11,1.11,0,1,0,0,2.22h9.09a1.11,1.11,0,1,0,0-2.22Z" fill="#010101"/><path d="M55.38,20.28h2.39a1.11,1.11,0,0,0,0-2.22H55.38a1.11,1.11,0,1,0,0,2.22Z" fill="#010101"/><path d="M70.91,25.3h-3a1.11,1.11,0,0,0,0,2.22h3a1.11,1.11,0,1,0,0-2.22Z" fill="#010101"/><path d="M55.38,27.52H64a1.11,1.11,0,0,0,0-2.22H55.38a1.11,1.11,0,0,0,0,2.22Z" fill="#010101"/><path d="M70.91,32.54H61a1.11,1.11,0,0,0,0,2.22h9.93a1.11,1.11,0,1,0,0-2.22Z" fill="#010101"/><path d="M55.38,34.76H57a1.11,1.11,0,0,0,0-2.22H55.38a1.11,1.11,0,0,0,0,2.22Z" fill="#010101"/><path d="M50.05,44.59a9.88,9.88,0,0,0-9.87,9.87v4.47a9.88,9.88,0,0,0,9.87,9.87h.05A9.87,9.87,0,0,0,60,58.93V54.46a9.88,9.88,0,0,0-9.87-9.87Zm7.7,9.87v4.47a7.67,7.67,0,0,1-7.65,7.65h-.05a7.65,7.65,0,0,1-7.64-7.65V54.46a7.64,7.64,0,0,1,7.64-7.64h.05A7.65,7.65,0,0,1,57.75,54.46Z" fill="#010101"/><path d="M75.75,50.21A8.78,8.78,0,0,0,67,59V62.9a8.78,8.78,0,0,0,8.78,8.78h0a8.79,8.79,0,0,0,8.78-8.78V59a8.79,8.79,0,0,0-8.78-8.78ZM82.34,59V62.9a6.56,6.56,0,0,1-6.55,6.56h0a6.58,6.58,0,0,1-6.56-6.56V59a6.56,6.56,0,0,1,6.56-6.55h0A6.55,6.55,0,0,1,82.34,59Z" fill="#010101"/><path d="M82,72.36a1.35,1.35,0,0,0-1.17.68,6.33,6.33,0,0,1-8.91.9,6.54,6.54,0,0,1-1.09-1.14,1.09,1.09,0,0,0-.92-.46,9.64,9.64,0,0,0-5,1.5,11,11,0,0,0-7.77-4c-.59,0-.88.32-1.21.72a7.38,7.38,0,0,1-10.4,1,7.28,7.28,0,0,1-1.27-1.33,1.12,1.12,0,0,0-.92-.45,10.87,10.87,0,0,0-7.59,3.31c-.21.22-.41.44-.6.67a9.65,9.65,0,0,0-4.62-1.5A1.35,1.35,0,0,0,29.4,73a6.33,6.33,0,0,1-8.91.9,6.48,6.48,0,0,1-1.08-1.14,1.11,1.11,0,0,0-.93-.46A9.78,9.78,0,0,0,9,82.12v8.66a1.12,1.12,0,0,0,1.12,1.11H32.66v3.29a1.11,1.11,0,0,0,1.11,1.11H66.38a1.12,1.12,0,0,0,1.12-1.11V91.89H90a1.12,1.12,0,0,0,1.12-1.11V82.12A9.79,9.79,0,0,0,82,72.36ZM11.19,89.67V82.12A7.6,7.6,0,0,1,18,74.6a8.55,8.55,0,0,0,12.06.94,7.82,7.82,0,0,0,.91-.91,7.58,7.58,0,0,1,3,1.07,10.92,10.92,0,0,0-1.29,5.18v8.79Zm54.08,4.39H34.88V80.88a8.79,8.79,0,0,1,8-8.75A9.61,9.61,0,0,0,56.44,73.3a10,10,0,0,0,1.13-1.13,8.78,8.78,0,0,1,7.7,8.71Zm23.66-4.39H67.5V80.88a11,11,0,0,0-1.31-5.19,7.43,7.43,0,0,1,3.23-1.09,8.55,8.55,0,0,0,12.06.94,8.69,8.69,0,0,0,.91-.91,7.57,7.57,0,0,1,6.54,7.49Z" fill="#010101"/><path d="M24.33,71.68h0a8.78,8.78,0,0,0,8.78-8.78V59a8.78,8.78,0,0,0-8.78-8.78h0A8.79,8.79,0,0,0,15.55,59V62.9A8.78,8.78,0,0,0,24.33,71.68ZM17.77,59a6.56,6.56,0,0,1,6.56-6.55h0A6.55,6.55,0,0,1,30.92,59V62.9a6.56,6.56,0,0,1-6.55,6.56h0a6.58,6.58,0,0,1-6.56-6.56Z" fill="#010101"/></svg>