<svg id="Layer_1" data-name="Layer 1" xmlns="http://www.w3.org/2000/svg" viewBox="0 0 100 100"><title>relationship</title><path d="M7.58,53.83l.81,6.4a34.48,34.48,0,0,0,9.84,20.06,1.4,1.4,0,0,0-.37.95V92.43a1.39,1.39,0,0,0,1.39,1.39H36.92a1.39,1.39,0,0,0,1.39-1.39V81.24a1.4,1.4,0,0,0-1.39-1.4h-.08V77a15.4,15.4,0,0,0-6-12.1l-2.05-4a3.72,3.72,0,0,0-5-1.62,3.82,3.82,0,0,0-1.19,1,3.65,3.65,0,0,0-.75,3l.86,4.26a1.69,1.69,0,0,0,.12.36l.16.31a22.22,22.22,0,0,1-6.48-12.3L16,52.6a4.26,4.26,0,0,0-4.94-3.46A4.32,4.32,0,0,0,8.6,50.52,4.21,4.21,0,0,0,7.58,53.83ZM35.52,82.64V91H20.65V82.64ZM10.7,52.37a1.48,1.48,0,0,1,2.08-.13,1.51,1.51,0,0,1,.47.83l.56,3.3a25.06,25.06,0,0,0,12.46,17.7,1.4,1.4,0,0,0,1.94-1.85l-2.74-5.43-.83-4.07a.85.85,0,0,1,.18-.72.9.9,0,0,1,.71-.34.91.91,0,0,1,.82.5l2.19,4.33A1.36,1.36,0,0,0,29,67,12.58,12.58,0,0,1,34.05,77v2.8H21.81a31.78,31.78,0,0,1-10.64-20l-.81-6.4A1.39,1.39,0,0,1,10.7,52.37Z" fill="#010101"/><path d="M91.42,53.83a4.18,4.18,0,0,0-1-3.3A4.26,4.26,0,0,0,83,52.61l-.56,3.3A22.16,22.16,0,0,1,76,68.2l.16-.31a1.45,1.45,0,0,0,.12-.35l.86-4.26a3.68,3.68,0,0,0-.75-3.05,3.72,3.72,0,0,0-5.24-.51,3.67,3.67,0,0,0-1,1.18l-2,4a15.4,15.4,0,0,0-6,12.1v2.8h-.07a1.4,1.4,0,0,0-1.4,1.4V92.43a1.39,1.39,0,0,0,1.4,1.39H79.75a1.4,1.4,0,0,0,1.4-1.39V81.24a1.41,1.41,0,0,0-.38-.95,34.48,34.48,0,0,0,9.84-20.06ZM78.35,91H63.48V82.64H78.35Zm9.48-31.15a31.69,31.69,0,0,1-10.64,20H65V77A12.56,12.56,0,0,1,70.05,67a1.36,1.36,0,0,0,.42-.5l2.19-4.33a.92.92,0,0,1,.81-.49.89.89,0,0,1,.71.34.85.85,0,0,1,.19.72l-.83,4.07L70.8,72.22a1.4,1.4,0,0,0,1.93,1.85A25.07,25.07,0,0,0,85.2,56.37l.56-3.3a1.47,1.47,0,0,1,1.72-1.17,1.45,1.45,0,0,1,.82.47,1.4,1.4,0,0,1,.35,1.11Z" fill="#010101"/><path d="M63.48,19.5h0a13.87,13.87,0,0,0-6.57-3.57,12.7,12.7,0,0,0-1.71-2,14.15,14.15,0,0,0-19.67,0h0a14.15,14.15,0,0,0-19.67,0,13.43,13.43,0,0,0-.31,19l.31.31L34.54,51.48a1.41,1.41,0,0,0,2,0l10.13-9.9L62.51,57.07a1.39,1.39,0,0,0,1.95,0L83.17,38.8a13.45,13.45,0,0,0,.28-19l-.28-.28A14.2,14.2,0,0,0,63.48,19.5Zm-28,29L17.79,31.21a10.64,10.64,0,0,1-.26-15,3.19,3.19,0,0,1,.26-.26,11.35,11.35,0,0,1,15.77,0l1,1a1.39,1.39,0,0,0,2,0l1-1a11.35,11.35,0,0,1,15.77,0,10.63,10.63,0,0,1,.26,15l-.26.27ZM81.22,36.8,63.48,54.11,48.63,39.62l6.57-6.41a13.43,13.43,0,0,0,3.46-13.72,11.13,11.13,0,0,1,2.87,2l1,1a1.39,1.39,0,0,0,1.95,0l1-1a11.38,11.38,0,0,1,15.78,0,10.66,10.66,0,0,1,.23,15.08l-.23.23Z" fill="#010101"/><path d="M25.73,21.11v2.8A12.58,12.58,0,0,1,38.31,36.49h2.8A15.4,15.4,0,0,0,25.73,21.11Z" fill="#010101"/><path d="M60.69,28.1v2.8a9.8,9.8,0,0,1,9.79,9.79h2.79A12.59,12.59,0,0,0,60.69,28.1Z" fill="#010101"/></svg>