<svg id="Layer_1" data-name="Layer 1" xmlns="http://www.w3.org/2000/svg" viewBox="0 0 100 100"><title>self-awareness</title><path d="M80.94,44.12A14.15,14.15,0,0,0,74.31,18.4V15.5a7.08,7.08,0,0,0-7.08-7.08H14.85A7.08,7.08,0,0,0,7.77,15.5V62.22a7.08,7.08,0,0,0,7.08,7.08H53.07v9.91a5.67,5.67,0,0,0,5.67,5.67h1.41v8.49H63V63.64H60.15V82H58.74a2.82,2.82,0,0,1-2.83-2.83v-17A17,17,0,0,1,68.35,45.88a13.91,13.91,0,0,0,9.1,0A17,17,0,0,1,89.89,62.22v17A2.83,2.83,0,0,1,87.06,82H85.64V63.64H82.81V93.37h2.83V84.88h1.42a5.67,5.67,0,0,0,5.66-5.67v-17A19.78,19.78,0,0,0,80.94,44.12ZM14.85,66.47a4.25,4.25,0,0,1-4.25-4.25V15.5a4.25,4.25,0,0,1,4.25-4.25H67.23a4.25,4.25,0,0,1,4.25,4.25v2.9a14.36,14.36,0,0,0-2.83.58v-.65a4.25,4.25,0,0,0-4.25-4.25H17.68a4.25,4.25,0,0,0-4.25,4.25V59.39a4.25,4.25,0,0,0,4.25,4.25H53.07v2.83ZM38.92,45.23A11.33,11.33,0,1,1,50.24,33.91,11.32,11.32,0,0,1,38.92,45.23Zm0,2.83a14,14,0,0,0,4.54-.76A17,17,0,0,1,54.08,56a20,20,0,0,0-.95,4.78h-31A16.93,16.93,0,0,1,34.36,47.3,14.16,14.16,0,0,0,38.92,48.06Zm16.54,4.73a19.64,19.64,0,0,0-8.52-7.23,14.16,14.16,0,1,0-16.07,0A19.77,19.77,0,0,0,19.3,60.81H17.68a1.43,1.43,0,0,1-1.42-1.42V51.48l6.67-6.66-2-2-4.66,4.66V18.33a1.43,1.43,0,0,1,1.42-1.42H48.24l-1.83,1.84,2,2,3.83-3.84h3.08l-4.66,4.67,2,2,6.66-6.67H64.4a1.43,1.43,0,0,1,1.42,1.42v1.92a14.11,14.11,0,0,0-1,23.87A19.81,19.81,0,0,0,55.46,52.79Zm6.11-20.3A11.33,11.33,0,1,1,72.9,43.82,11.33,11.33,0,0,1,61.57,32.49Z" fill="#010101"/><rect x="71.48" y="83.46" width="2.83" height="9.91" fill="#010101"/><circle cx="34.67" cy="32.49" r="1.42" fill="#010101"/><circle cx="43.16" cy="32.49" r="1.42" fill="#010101"/><path d="M38.92,39.57a5.61,5.61,0,0,1-4.54-2.27L32.12,39A8.48,8.48,0,0,0,44,40.7a8.06,8.06,0,0,0,1.7-1.7l-2.26-1.7A5.6,5.6,0,0,1,38.92,39.57Z" fill="#010101"/><path d="M10.6,83.46h2.83v9.91h2.83V83.46H41.75v9.91h2.83V83.46h2.83v9.91h2.83v-17A1.41,1.41,0,0,0,48.83,75H9.18a1.41,1.41,0,0,0-1.41,1.41v17H10.6ZM47.41,77.8v2.83H10.6V77.8Z" fill="#010101"/><rect x="18.51" y="36.74" width="4" height="2.83" transform="translate(-20.97 25.68) rotate(-45)" fill="#010101"/></svg>