<svg id="Layer_1" data-name="Layer 1" xmlns="http://www.w3.org/2000/svg" viewBox="0 0 100 100"><title>sports</title><rect x="10.36" y="47.34" width="79.78" height="5.82" transform="translate(-20.82 50.19) rotate(-44.95)" fill="#010101"/><rect x="47.34" y="10.36" width="5.82" height="79.78" transform="translate(-20.82 50.31) rotate(-45.05)" fill="#010101"/><path d="M59.35,60A36.6,36.6,0,0,0,48.82,90.32l5.78-.68A31,31,0,0,1,90.14,55.4l.93-5.74A36.72,36.72,0,0,0,59.35,60Z" fill="#010101"/><path d="M48.88,10.22l-5.8.42A31,31,0,0,1,34,34.77a30.58,30.58,0,0,1-24,9l-.36,5.81c.82.06,1.63.08,2.43.08A36.18,36.18,0,0,0,38.14,38.87,36.73,36.73,0,0,0,48.88,10.22Z" fill="#010101"/><path d="M50.35,6.65A43.65,43.65,0,1,0,94,50.3,43.71,43.71,0,0,0,50.35,6.65Zm0,81.48A37.83,37.83,0,1,1,88.18,50.3,37.88,37.88,0,0,1,50.35,88.13Z" fill="#010101"/></svg>