<svg id="Layer_1" data-name="Layer 1" xmlns="http://www.w3.org/2000/svg" viewBox="0 0 100 100"><title>swimming-01</title><path d="M37.52,69.45a3.93,3.93,0,0,0,5.15,0,12.44,12.44,0,0,1,14.85,0,3.93,3.93,0,0,0,5.15,0,12.56,12.56,0,0,1,4.85-2.22L60.8,54.82l5.62-15.37L80.67,27.22a4.61,4.61,0,0,0-6-7l-15.17,13a4.66,4.66,0,0,0-1.33,1.91L51.29,54l0,.1L26.54,67.48A12.29,12.29,0,0,1,30.1,67a12,12,0,0,1,7.42,2.46Z" fill="#010101"/><circle cx="74.38" cy="53.13" r="9.27" fill="#010101"/><path d="M14.13,74.4a9.53,9.53,0,0,0,6,2,9.53,9.53,0,0,0,6-2,6.43,6.43,0,0,1,8.06,0,9.87,9.87,0,0,0,11.94,0,6.43,6.43,0,0,1,8.06,0,9.86,9.86,0,0,0,11.93,0,6.44,6.44,0,0,1,8.07,0,9.87,9.87,0,0,0,11.94,0,6.13,6.13,0,0,1,4-1.42,1.71,1.71,0,1,0,0-3.42,9.47,9.47,0,0,0-6,2,6.48,6.48,0,0,1-8.07,0,9.86,9.86,0,0,0-11.93,0,6.48,6.48,0,0,1-8.07,0,9.86,9.86,0,0,0-11.93,0,6.46,6.46,0,0,1-8.06,0,9.87,9.87,0,0,0-11.94,0,6.12,6.12,0,0,1-4,1.41,6.12,6.12,0,0,1-4-1.41,9.47,9.47,0,0,0-6-2,1.71,1.71,0,1,0,0,3.42,6.13,6.13,0,0,1,4,1.42Z" fill="#010101"/><path d="M66.06,83a9.82,9.82,0,0,1-11.93,0,6.46,6.46,0,0,0-8.06,0,9.83,9.83,0,0,1-11.94,0,6.46,6.46,0,0,0-8.06,0,9.47,9.47,0,0,1-6,2c-5.53,0-5.82-3.43-10-3.43a1.72,1.72,0,1,1,0-3.43c5.53,0,5.82,3.43,10,3.43s4.53-3.43,10-3.43a9.47,9.47,0,0,1,6,2,6.46,6.46,0,0,0,8.06,0,9.82,9.82,0,0,1,11.93,0,6.48,6.48,0,0,0,8.07,0,9.82,9.82,0,0,1,11.93,0,6.48,6.48,0,0,0,8.07,0,9.47,9.47,0,0,1,6-2,1.72,1.72,0,0,1,0,3.43,6.12,6.12,0,0,0-4,1.41,9.83,9.83,0,0,1-11.94,0,6.48,6.48,0,0,0-8.07,0Z" fill="#010101"/><path d="M74.13,83a9.83,9.83,0,0,0,11.94,0,6.12,6.12,0,0,1,4-1.41,1.72,1.72,0,0,0,0-3.43,9.47,9.47,0,0,0-6,2,6.48,6.48,0,0,1-8.07,0,9.82,9.82,0,0,0-11.93,0,6.48,6.48,0,0,1-8.07,0,9.82,9.82,0,0,0-11.93,0,6.46,6.46,0,0,1-8.06,0,9.47,9.47,0,0,0-6-2c-5.53,0-5.82,3.43-10,3.43a6.12,6.12,0,0,1-4-1.41,9.47,9.47,0,0,0-6-2,1.72,1.72,0,1,0,0,3.43c4.09,0,4.53,3.43,10,3.43a9.47,9.47,0,0,0,6-2,6.46,6.46,0,0,1,8.06,0,9.83,9.83,0,0,0,11.94,0,6.46,6.46,0,0,1,8.06,0,9.82,9.82,0,0,0,11.93,0,6.48,6.48,0,0,1,8.07,0Z" fill="#010101"/></svg>