<svg id="Layer_1" data-name="Layer 1" xmlns="http://www.w3.org/2000/svg" viewBox="0 0 100 100"><title>tennis</title><path d="M91.58,80.91,75.42,64.75l-1.36,1.36a32,32,0,0,1-8.51-21.78V37.92A31.82,31.82,0,0,0,33.76,6.13,27.45,27.45,0,0,0,6.35,33.54a31.88,31.88,0,0,0,10,23.12,19.75,19.75,0,1,0,27.56,8.67h.66a32,32,0,0,1,21.78,8.51L65,75.2,81.13,91.36A7.39,7.39,0,0,0,91.58,80.91Zm-65.5,9.8A16.94,16.94,0,0,1,9.17,73.79a16.54,16.54,0,0,1,.55-4.19,8.33,8.33,0,0,1,6.7,4.22A11.1,11.1,0,0,0,22.85,79l.82-2.7a8.34,8.34,0,0,1-4.84-3.9,11.14,11.14,0,0,0-8.15-5.5,16.88,16.88,0,0,1,30.81,0,11.2,11.2,0,0,0-8.19,5.58,8.31,8.31,0,0,1-4.8,3.82l.81,2.7a11.14,11.14,0,0,0,6.48-5.2,8.3,8.3,0,0,1,6.66-4.15A16.54,16.54,0,0,1,43,73.79,16.94,16.94,0,0,1,26.08,90.71Zm0-70.48v5.63H20.45V20.41l.18-.18Zm-1.8-2.82a17.31,17.31,0,0,1,1.8-1v1Zm1.8,11.27v5.64H20.45V28.68Zm0,8.46v5.64H20.45V37.14Zm0,8.46v5.64H23.86l-.09-.08-3.25-3.25-.07-.08V45.6Zm8.46-25.37v5.63H28.9V20.23ZM28.9,17.41v-2a19.53,19.53,0,0,1,5.43-.78h.21v2.81Zm5.64,11.27v5.64H28.9V28.68Zm0,8.46v5.64H28.9V37.14Zm0,8.46v5.64H28.9V45.6Zm0,8.46V56a19.44,19.44,0,0,0-5.64-1.71v-.22ZM43,17.41H37.36V14.84A19.44,19.44,0,0,1,43,16.63Zm0,36.65v2a19.47,19.47,0,0,1-5.43.78h-.18l0,.76h0V54.06Zm0-33.83v5.63H37.36V20.23Zm0,8.45v5.64H37.36V28.68Zm0,8.46v5.64H37.36V37.14Zm0,8.46v5.64H37.36V45.6Zm1.55,16.91H42.26a20.56,20.56,0,0,0-2.51-2.93,22.34,22.34,0,0,0,13.62-38l-3.24-3.24a22.34,22.34,0,0,0-31.6,31.6l3.24,3.24c.41.41.85.79,1.29,1.16a19.62,19.62,0,0,0-3.9,1l-.64-.47A29.06,29.06,0,0,1,9.17,33.54,24.62,24.62,0,0,1,33.77,9a29,29,0,0,1,29,29v6.41A34.85,34.85,0,0,0,72,68.13l-3.69,3.69A34.85,34.85,0,0,0,44.55,62.51Zm6.91-33.83v5.64H45.82V28.68Zm-5.64-2.82V20.23h2.23l.08.08,3.25,3.24.08.09v2.22Zm5.64,11.28v5.64H45.82V37.14Zm0,8.46v5.46l-.18.18H45.82V45.6Zm-3.83,8.46c-.59.35-1.19.67-1.81,1v-1Zm9.46-16.92c0,.07,0,.14,0,.21a19.48,19.48,0,0,1-.79,5.43h-2V37.14Zm-2.81-2.82V28.68h.77a19.44,19.44,0,0,1,1.79,5.64Zm1,11.28c-.29.62-.61,1.22-1,1.81V45.6ZM14.82,34.32c0-.07,0-.14,0-.21a19.53,19.53,0,0,1,.78-5.43h2v5.64Zm2.81,2.82v5.64h-.78a19.44,19.44,0,0,1-1.79-5.64Zm-1-11.28a17.31,17.31,0,0,1,1-1.8v1.8ZM86.35,90.71a4.56,4.56,0,0,1-3.23-1.34L69,75.2l6.46-6.46L89.59,82.9a4.57,4.57,0,0,1-3.24,7.81Z" fill="#010101"/><circle cx="86.7" cy="86.48" r="1.41" fill="#010101"/></svg>