<svg id="Layer_1" data-name="Layer 1" xmlns="http://www.w3.org/2000/svg" viewBox="0 0 100 100"><path d="M80.66,43.57a1.24,1.24,0,0,0-1.67.54,1.94,1.94,0,0,1-2.6.84,1.24,1.24,0,1,0-1.13,2.21,4.43,4.43,0,0,0,5.94-1.92,1.24,1.24,0,0,0-.54-1.67Z"/><path d="M70.62,38.49A1.24,1.24,0,0,0,69,39a1.93,1.93,0,0,1-2.59.84,1.24,1.24,0,1,0-1.14,2.21,4.4,4.4,0,0,0,5.94-1.91,1.25,1.25,0,0,0-.54-1.68Z"/><path d="M90.11,37.63,85.29,22.7a1.24,1.24,0,1,0-2.36.76L83.74,26a7,7,0,0,1-4.46-.83A1.24,1.24,0,0,0,78.1,25a1.42,1.42,0,0,0-.33.21A64,64,0,0,1,61.18,35.57a5.53,5.53,0,0,0-2.72,2.35,10.11,10.11,0,0,0-1.25,3.34,5.05,5.05,0,0,0-.56-.12,4.19,4.19,0,0,0-2.25.31l-2.64-8.18a14.31,14.31,0,0,1,9.23-18L64.83,14a14.27,14.27,0,0,1,12.26,1.64,24.15,24.15,0,0,0-10.84,3.49,23.48,23.48,0,0,0-9.71,11.77,1.23,1.23,0,0,0,.72,1.6,1.12,1.12,0,0,0,.44.09,1.25,1.25,0,0,0,1.16-.81,21.05,21.05,0,0,1,8.69-10.54A21.65,21.65,0,0,1,79.92,18.1a15.09,15.09,0,0,1,1,1.25,1.24,1.24,0,0,0,2-1.44,16.74,16.74,0,0,0-8.3-6.18,16.55,16.55,0,0,0-10.57-.08l-3.84,1.24A16.78,16.78,0,0,0,49.4,34l1.85,5.75A11,11,0,0,0,44.78,43c-3.27,3.24-4.24,8.19-2.26,11.52a1.24,1.24,0,0,0,1.07.6l.24,0a16.73,16.73,0,0,0,8.53-4.52,15.93,15.93,0,0,0,1.27-1.44,6.36,6.36,0,0,0,1,1,14,14,0,0,0,7.18,7.56,5.68,5.68,0,0,0,0,.72v4.79c-4,5.92-11.48,8.23-12.3,8.47L11.35,76.26a5.32,5.32,0,0,0,.08,10.64H18a1.25,1.25,0,0,0,0-2.49H13.74a6.19,6.19,0,0,0,.2-4.5,9,9,0,0,0-.55-1.39l35.25-4.3,1.59,10.19H23a1.25,1.25,0,0,0,0,2.49H51.69l.23,0s4.39-.84,9.82-2.29v.84a5.33,5.33,0,0,0,5.32,5.32h5.75a3.43,3.43,0,0,0,0-6.85h-.44V81.2A39.17,39.17,0,0,0,80.81,77c7.85-5.54,4.42-14.35,2.16-20.18-.26-.67-.51-1.31-.73-1.91a14.07,14.07,0,0,0,7.87-17.25ZM44.27,52.42c-.91-2.52.33-5.76,2.26-7.68A8.34,8.34,0,0,1,52,42.21l.38,1.18a3.93,3.93,0,0,0-.32,2,6.7,6.7,0,0,0,.23,1.25,13.73,13.73,0,0,1-1.73,2.14A14.13,14.13,0,0,1,44.27,52.42ZM8.6,81.58a2.84,2.84,0,0,1,2.13-2.74c.7,1.06,1.91,3.49.11,5.51A2.84,2.84,0,0,1,8.6,81.58Zm42.48-7.87a30.55,30.55,0,0,0,4-1.72c.19,2.75.84,7.61,3,11-2.29.57-4.2,1-5.37,1.22Zm9.58,8.6A15.94,15.94,0,0,1,58,75.11a35.41,35.41,0,0,1-.45-4.53,23.63,23.63,0,0,0,4.24-3.49V82Zm12.15,4.08a.94.94,0,1,1,0,1.87H67.06a2.83,2.83,0,0,1-2.83-2.83V58.36a2.83,2.83,0,1,1,5.66,0V85.14a1.25,1.25,0,0,0,1.24,1.25ZM79.9,55.7c.23.63.49,1.3.75,2s.47,1.19.7,1.81c-.95.67-2.91,1.79-4.79,1.34a5.32,5.32,0,0,1-3.25-3Zm-.52,19.24a34.64,34.64,0,0,1-7,3.59V60.9a6.39,6.39,0,0,0,5.08,2.53,9.31,9.31,0,0,0,4.74-1.51,20.38,20.38,0,0,1,1,5.07A8.46,8.46,0,0,1,79.38,74.94Zm.91-22-8.61,2.78a5.31,5.31,0,0,0-9-.42,11.58,11.58,0,0,1-4.5-3.79,5.83,5.83,0,0,0,.59,0,6.86,6.86,0,0,0,2.09-.33l.27-.09a1.24,1.24,0,0,0-.76-2.37l-.28.09a4.25,4.25,0,0,1-5.35-2.74,4.15,4.15,0,0,1-.19-.93,1.48,1.48,0,0,1,.22-1,1.61,1.61,0,0,1,1.51-.62,1.35,1.35,0,0,1,1.13,1,1.24,1.24,0,1,0,2.36-.78,6,6,0,0,1,.82-4.66,3.08,3.08,0,0,1,1.5-1.28A67.53,67.53,0,0,0,78.78,27.67a9.75,9.75,0,0,0,5.73.69l1.37,4.24a1.25,1.25,0,0,0-1.55.6,1.85,1.85,0,0,1-1.12.95A1.93,1.93,0,0,1,81.74,34a1.24,1.24,0,1,0-1.13,2.21,4.41,4.41,0,0,0,2,.49A4.5,4.5,0,0,0,84,36.52a4.37,4.37,0,0,0,2.5-2.06l1.27,3.93A11.58,11.58,0,0,1,80.29,53Z"/></svg>